# File created by Blade
# Date/Time:  Fri Jan 16 19:32:17 2015
# Frame Rate: 120.000 fps
#------------------------------------------------------
:FULLY-SPECIFIED
:DEGREES
532
root 19.729930 35.460674 -19.878677 12.600902 11.759775 0.370785
Spine -27.606662 -9.096297 -2.178392
Head 18.927150 -3.775592 3.876623
LeftShoulder -4.906681 -3.724753 -7.163035
LeftArm -103.353839 55.290765 -197.106311
LeftForeArm 45.723278 0.000000 136.064571
LeftHand 8.426293 -0.000000 -13.202339
LeftHandThumb1 -26.253704 0.000000 33.147579
RightShoulder -16.483706 23.723965 -38.551452
RightArm -221.714142 56.056662 -250.263136
RightForeArm 14.948674 -0.000000 154.583234
RightHand 4.404679 -0.000000 -22.571170
RightHandThumb1 -24.326973 -0.000000 -32.862282
LeftUpLeg -2.944869 -0.063659 1.108364
LeftLeg -7.538127 -0.000000 0.000000
LeftFoot -19.608150 26.561479 -13.973312
LeftToeBase 25.576964 -0.000000 -0.000000
RightUpLeg -0.608592 -17.382604 -0.648079
RightLeg -4.795952 -0.000000 0.000000
RightFoot -23.424086 -24.633824 21.175300
RightToeBase 23.742932 -0.000000 -0.000000
533
root 19.732391 35.458449 -19.869634 12.508847 11.742205 0.417184
Spine -27.486433 -9.079339 -2.299117
Head 18.856015 -4.011977 3.595828
LeftShoulder -4.773271 -3.442763 -7.064799
LeftArm -102.919771 55.147744 -196.363056
LeftForeArm 45.780931 0.000000 135.790273
LeftHand 8.514534 -0.000000 -13.267108
LeftHandThumb1 -26.253704 0.000000 33.147579
RightShoulder -16.146160 23.474291 -38.332039
RightArm -222.680968 56.578551 -250.598304
RightForeArm 14.841377 -0.000000 154.083515
RightHand 4.190023 -0.000000 -23.236017
RightHandThumb1 -24.326973 -0.000000 -32.862282
LeftUpLeg -2.810785 -0.066647 1.059233
LeftLeg -7.570204 -0.000000 0.000000
LeftFoot -19.595791 26.554729 -14.013638
LeftToeBase 25.332957 -0.000000 -0.000000
RightUpLeg -0.464531 -17.426479 -0.731188
RightLeg -4.843129 -0.000000 0.000000
RightFoot -23.421736 -24.598243 21.123684
RightToeBase 23.820217 -0.000000 -0.000000
534
root 19.729169 35.456865 -19.868303 12.474520 11.728049 0.416606
Spine -27.365931 -9.058287 -2.328248
Head 18.654516 -3.883290 3.559206
LeftShoulder -4.782322 -3.149319 -6.975109
LeftArm -102.642258 55.007494 -195.684737
LeftForeArm 46.069463 0.000000 135.593839
LeftHand 8.576830 -0.000000 -13.445354
LeftHandThumb1 -26.253704 0.000000 33.147579
RightShoulder -15.917456 23.240300 -38.228981
RightArm -223.467074 57.064194 -250.720568
RightForeArm 14.762536 0.000000 153.461784
RightHand 3.833956 0.000000 -23.961821
RightHandThumb1 -24.326973 -0.000000 -32.862282
LeftUpLeg -2.775282 -0.076603 1.066389
LeftLeg -7.562010 -0.000000 0.000000
LeftFoot -19.615953 26.577771 -14.001306
LeftToeBase 25.563977 -0.000000 -0.000000
RightUpLeg -0.422499 -17.438985 -0.736356
RightLeg -4.856487 -0.000000 0.000000
RightFoot -23.415004 -24.578248 21.111457
RightToeBase 23.807644 -0.000000 -0.000000
535
root 19.727405 35.453730 -19.866353 12.403502 11.702170 0.412894
Spine -27.208062 -8.990601 -2.374701
Head 18.457255 -3.804809 3.475800
LeftShoulder -4.789382 -2.807095 -6.909514
LeftArm -102.386047 54.778238 -195.061540
LeftForeArm 46.875173 -0.000000 135.498291
LeftHand 8.651412 -0.000000 -13.767844
LeftHandThumb1 -26.253704 0.000000 33.147579
RightShoulder -15.680424 22.669881 -38.038871
RightArm -223.741715 57.481714 -250.426274
RightForeArm 14.709865 -0.000000 152.703045
RightHand 3.610714 -0.000000 -24.522961
RightHandThumb1 -24.326973 -0.000000 -32.862282
LeftUpLeg -2.698279 -0.075154 1.079893
LeftLeg -7.552092 -0.000000 0.000000
LeftFoot -19.663190 26.514843 -14.019080
LeftToeBase 25.397265 -0.000000 -0.000000
RightUpLeg -0.345693 -17.421632 -0.755176
RightLeg -4.865844 -0.000000 0.000000
RightFoot -23.437813 -24.636004 21.032501
RightToeBase 23.946230 -0.000000 -0.000000
536
root 19.726086 35.453070 -19.862892 12.350662 11.671001 0.419094
Spine -27.040674 -8.973481 -2.433460
Head 18.171181 -3.740845 3.460384
LeftShoulder -4.924035 -2.515439 -6.799427
LeftArm -101.984000 54.438601 -194.256308
LeftForeArm 47.200419 -0.000000 135.347731
LeftHand 8.735380 -0.000000 -14.186707
LeftHandThumb1 -26.253704 0.000000 33.147579
RightShoulder -15.447491 22.452585 -37.909863
RightArm -224.300896 58.032500 -250.320404
RightForeArm 14.845260 -0.000000 151.834112
RightHand 3.530643 -0.000000 -25.137620
RightHandThumb1 -24.326973 -0.000000 -32.862282
LeftUpLeg -2.632080 -0.072660 1.064231
LeftLeg -7.568428 -0.000000 0.000000
LeftFoot -19.648118 26.623228 -13.976355
LeftToeBase 25.389265 -0.000000 -0.000000
RightUpLeg -0.282558 -17.412479 -0.779380
RightLeg -4.878524 -0.000000 0.000000
RightFoot -23.429913 -24.592047 21.057064
RightToeBase 23.841326 -0.000000 -0.000000
537
root 19.723809 35.452703 -19.858537 12.302083 11.637275 0.418351
Spine -26.859794 -9.005446 -2.483880
Head 17.826483 -3.685323 3.498804
LeftShoulder -5.167548 -2.244619 -6.706143
LeftArm -101.469361 54.090708 -193.230479
LeftForeArm 47.604148 0.000000 135.263271
LeftHand 8.646503 -0.000000 -14.716894
LeftHandThumb1 -26.253704 0.000000 33.147579
RightShoulder -15.181307 22.188351 -37.698630
RightArm -224.684411 58.607462 -250.120335
RightForeArm 14.685183 0.000000 150.908876
RightHand 3.273831 -0.000000 -25.903016
RightHandThumb1 -24.326973 -0.000000 -32.862282
LeftUpLeg -2.575073 -0.060096 1.064952
LeftLeg -7.561509 -0.000000 0.000000
LeftFoot -19.667804 26.627981 -13.999347
LeftToeBase 25.394237 -0.000000 -0.000000
RightUpLeg -0.231696 -17.398598 -0.795132
RightLeg -4.875038 -0.000000 0.000000
RightFoot -23.425307 -24.574391 21.043285
RightToeBase 23.806078 -0.000000 -0.000000
538
root 19.721778 35.453602 -19.849861 12.221948 11.608227 0.418908
Spine -26.613666 -9.062307 -2.554253
Head 17.404020 -3.627664 3.613812
LeftShoulder -5.499380 -1.904320 -6.517012
LeftArm -101.191447 53.781195 -192.500334
LeftForeArm 48.001518 0.000000 135.036559
LeftHand 8.699356 -0.000000 -15.188185
LeftHandThumb1 -26.253704 0.000000 33.147579
RightShoulder -14.950794 22.129022 -37.507955
RightArm -225.229698 59.282925 -250.058379
RightForeArm 14.210721 -0.000000 149.942068
RightHand 2.812711 -0.000000 -26.966020
RightHandThumb1 -24.326973 -0.000000 -32.862282
LeftUpLeg -2.472037 -0.058400 1.066405
LeftLeg -7.571955 -0.000000 0.000000
LeftFoot -19.668622 26.648326 -14.054998
LeftToeBase 25.330306 -0.000000 -0.000000
RightUpLeg -0.137869 -17.404389 -0.823411
RightLeg -4.874023 -0.000000 0.000000
RightFoot -23.436059 -24.566697 21.020703
RightToeBase 23.979819 -0.000000 -0.000000
539
root 19.718202 35.450604 -19.845935 12.128510 11.585513 0.394241
Spine -26.410847 -8.925064 -2.619240
Head 17.183523 -3.724899 3.526460
LeftShoulder -5.552308 -1.399783 -6.319763
LeftArm -100.716079 53.641022 -191.510553
LeftForeArm 48.225146 -0.000000 134.883783
LeftHand 8.778608 -0.000000 -15.654318
LeftHandThumb1 -26.253704 0.000000 33.147579
RightShoulder -14.730340 21.656110 -37.306152
RightArm -225.171956 59.822759 -249.566402
RightForeArm 13.763305 0.000000 148.896356
RightHand 2.339965 -0.000000 -27.633933
RightHandThumb1 -24.326973 -0.000000 -32.862282
LeftUpLeg -2.388926 -0.035586 1.101074
LeftLeg -7.530944 -0.000000 0.000000
LeftFoot -19.731186 26.578397 -14.038789
LeftToeBase 25.317127 -0.000000 -0.000000
RightUpLeg -0.052285 -17.372231 -0.825654
RightLeg -4.856462 -0.000000 0.000000
RightFoot -23.439694 -24.584761 20.987354
RightToeBase 23.942057 -0.000000 -0.000000
540
root 19.712862 35.449499 -19.841992 11.992005 11.665491 0.411074
Spine -26.115071 -8.953534 -2.733308
Head 16.950620 -3.739662 3.566354
LeftShoulder -5.648048 -0.990702 -6.267638
LeftArm -100.106863 53.234373 -190.358718
LeftForeArm 48.924737 -0.000000 134.727509
LeftHand 8.863934 0.000000 -16.233896
LeftHandThumb1 -26.253704 0.000000 33.147579
RightShoulder -14.582342 21.554560 -37.114411
RightArm -225.769992 60.434198 -249.731459
RightForeArm 13.017912 0.000000 147.813575
RightHand 1.622033 -0.000000 -28.420736
RightHandThumb1 -24.326973 -0.000000 -32.862282
LeftUpLeg -2.280327 -0.134028 1.104605
LeftLeg -7.493375 -0.000000 0.000000
LeftFoot -19.731318 26.681562 -13.982021
LeftToeBase 25.354386 -0.000000 -0.000000
RightUpLeg 0.110177 -17.484018 -0.862035
RightLeg -4.861207 -0.000000 0.000000
RightFoot -23.440318 -24.568497 20.940747
RightToeBase 23.974977 -0.000000 -0.000000
541
root 19.710305 35.448682 -19.837197 11.896645 11.672888 0.380080
Spine -25.871101 -8.877017 -2.793631
Head 16.670362 -3.743712 3.625570
LeftShoulder -5.798075 -0.532509 -6.099257
LeftArm -99.663311 52.981073 -189.383642
LeftForeArm 49.458733 -0.000000 134.501076
LeftHand 8.903239 -0.000000 -16.676365
LeftHandThumb1 -26.253704 0.000000 33.147579
RightShoulder -14.479226 21.642831 -37.102447
RightArm -226.644512 61.216500 -249.980849
RightForeArm 12.398920 -0.000000 146.635429
RightHand 1.091444 -0.000000 -29.167329
RightHandThumb1 -24.326973 -0.000000 -32.862282
LeftUpLeg -2.191536 -0.156696 1.140206
LeftLeg -7.480838 -0.000000 0.000000
LeftFoot -19.758887 26.721873 -13.954314
LeftToeBase 25.346265 -0.000000 -0.000000
RightUpLeg 0.198327 -17.484232 -0.855541
RightLeg -4.837019 -0.000000 0.000000
RightFoot -23.426405 -24.525313 20.982812
RightToeBase 23.823951 -0.000000 -0.000000
542
root 19.708875 35.449497 -19.832302 11.813633 11.667791 0.356687
Spine -25.633042 -8.795583 -2.863664
Head 16.385401 -3.744391 3.702963
LeftShoulder -6.023352 -0.138872 -5.937541
LeftArm -99.276022 52.652239 -188.461996
LeftForeArm 49.933821 -0.000000 134.245249
LeftHand 8.902842 -0.000000 -17.131082
LeftHandThumb1 -26.253704 0.000000 33.147579
RightShoulder -14.317957 21.342417 -36.869867
RightArm -226.471976 61.758643 -249.442611
RightForeArm 12.093325 -0.000000 145.293738
RightHand 0.607380 0.000000 -29.771327
RightHandThumb1 -24.326973 -0.000000 -32.862282
LeftUpLeg -2.118769 -0.118816 1.159716
LeftLeg -7.454740 -0.000000 0.000000
LeftFoot -19.785479 26.703259 -13.953541
LeftToeBase 25.361763 -0.000000 -0.000000
RightUpLeg 0.268338 -17.461959 -0.856357
RightLeg -4.802645 -0.000000 0.000000
RightFoot -23.437123 -24.532305 21.013285
RightToeBase 23.780193 -0.000000 -0.000000
543
root 19.709780 35.449656 -19.824884 11.695575 11.686057 0.353746
Spine -25.361884 -8.733184 -2.963375
Head 16.178363 -3.796566 3.774840
LeftShoulder -6.203504 0.282964 -5.736217
LeftArm -98.812235 52.357495 -187.389340
LeftForeArm 50.281504 -0.000000 133.979822
LeftHand 8.968018 -0.000000 -17.538205
LeftHandThumb1 -26.253704 0.000000 33.147579
RightShoulder -14.205678 21.212504 -36.715534
RightArm -226.729759 62.446310 -249.279580
RightForeArm 11.600562 -0.000000 143.891626
RightHand -0.012144 -0.000000 -30.469156
RightHandThumb1 -24.326973 -0.000000 -32.862282
LeftUpLeg -1.996926 -0.125686 1.161523
LeftLeg -7.444674 -0.000000 0.000000
LeftFoot -19.796137 26.705753 -13.961807
LeftToeBase 25.369407 -0.000000 -0.000000
RightUpLeg 0.393644 -17.465166 -0.892582
RightLeg -4.773119 -0.000000 0.000000
RightFoot -23.459766 -24.558439 20.992514
RightToeBase 23.895642 -0.000000 -0.000000
